<svg width="74" height="74" viewBox="0 0 74 74" fill="none" xmlns="http://www.w3.org/2000/svg">
<path d="M0 40.5458V71.9958C0 73.0179 0.827875 73.8458 1.85 73.8458H11.1V36.8458H3.7C1.65691 36.8458 0 38.5027 0 40.5458ZM41.625 34.9958H38.85V30.3708C38.85 29.8598 38.4361 29.4458 37.925 29.4458H36.075C35.5639 29.4458 35.15 29.8598 35.15 30.3708V37.7708C35.15 38.2819 35.5639 38.6958 36.075 38.6958H41.625C42.1361 38.6958 42.55 38.2819 42.55 37.7708V35.9208C42.55 35.4098 42.1361 34.9958 41.625 34.9958ZM57.5523 27.6004L39.0523 15.2667C38.4445 14.8618 37.7304 14.6458 37 14.6458C36.2696 14.6458 35.5555 14.8618 34.9477 15.2667L16.4477 27.6004C15.9409 27.9383 15.5254 28.396 15.238 28.9329C14.9506 29.4698 14.8001 30.0694 14.8 30.6784V73.8458H29.6V57.1958C29.6 56.1737 30.4279 55.3458 31.45 55.3458H42.55C43.5721 55.3458 44.4 56.1737 44.4 57.1958V73.8458H59.2V30.6795C59.2 29.4424 58.5814 28.2861 57.5523 27.6004ZM37 44.2458C31.8917 44.2458 27.75 40.1041 27.75 34.9958C27.75 29.8875 31.8917 25.7458 37 25.7458C42.1083 25.7458 46.25 29.8875 46.25 34.9958C46.25 40.1041 42.1083 44.2458 37 44.2458ZM70.3 36.8458H62.9V73.8458H72.15C73.1721 73.8458 74 73.0179 74 71.9958V40.5458C74 38.5027 72.3431 36.8458 70.3 36.8458Z" fill="#3148A3"/>
</svg>
