<svg width="74" height="74" viewBox="0 0 74 74" fill="none" xmlns="http://www.w3.org/2000/svg">
<path d="M65.4727 16.3031L37.7227 7.05313C37.2518 6.90823 36.7482 6.90823 36.2773 7.05313L8.55625 16.3031H8.49844L8.20937 16.4477H8.18047L7.8914 16.6211C7.8914 16.65 7.8625 16.65 7.83359 16.6789L7.60234 16.8813L7.4 17.1125C7.4 17.1414 7.37109 17.1414 7.37109 17.1703L7.19765 17.4305C7.19765 17.4594 7.19765 17.4594 7.16875 17.4883L7.05312 17.7484L6.96641 18.0664V18.1531C6.93789 18.2664 6.92813 18.3836 6.9375 18.5V41.625C6.9375 42.2383 7.18114 42.8265 7.61481 43.2602C8.04849 43.6939 8.63669 43.9375 9.25 43.9375C9.86331 43.9375 10.4515 43.6939 10.8852 43.2602C11.3189 42.8265 11.5625 42.2383 11.5625 41.625V21.7086L21.275 24.9461C19.4503 27.8668 18.4883 31.2437 18.5 34.6875C18.5011 37.8195 19.2973 40.9 20.814 43.6402C22.3308 46.3805 24.5184 48.6908 27.1719 50.3547C21.6577 52.4407 16.9502 56.227 13.7305 61.1656C13.4023 61.6846 13.2911 62.3117 13.4209 62.9119C13.5506 63.512 13.911 64.0372 14.4242 64.3742C14.6761 64.5411 14.9586 64.6564 15.2553 64.7133C15.5521 64.7702 15.8572 64.7677 16.1529 64.7058C16.4487 64.644 16.7292 64.5241 16.9783 64.353C17.2273 64.182 17.44 63.9632 17.6039 63.7094C19.7029 60.4762 22.5768 57.8191 25.9642 55.9795C29.3517 54.1399 33.1453 53.1763 37 53.1763C40.8547 53.1763 44.6483 54.1399 48.0358 55.9795C51.4232 57.8191 54.2971 60.4762 56.3961 63.7094C56.6072 64.0299 56.8948 64.2929 57.2329 64.4746C57.571 64.6562 57.949 64.7509 58.3328 64.75C58.7758 64.7547 59.2096 64.6235 59.5758 64.3742C60.089 64.0372 60.4494 63.512 60.5791 62.9119C60.7089 62.3117 60.5977 61.6846 60.2695 61.1656C57.0498 56.227 52.3423 52.4407 46.8281 50.3547C49.4816 48.6908 51.6692 46.3805 53.186 43.6402C54.7027 40.9 55.4989 37.8195 55.5 34.6875C55.5117 31.2437 54.5497 27.8668 52.725 24.9461L65.4727 20.6969C65.9353 20.5448 66.3382 20.2506 66.6237 19.8561C66.9093 19.4616 67.0631 18.987 67.0631 18.5C67.0631 18.013 66.9093 17.5384 66.6237 17.1439C66.3382 16.7495 65.9353 16.4552 65.4727 16.3031ZM50.875 34.6875C50.875 38.3674 49.4132 41.8966 46.8111 44.4986C44.209 47.1007 40.6799 48.5625 37 48.5625C33.3201 48.5625 29.791 47.1007 27.1889 44.4986C24.5868 41.8966 23.125 38.3674 23.125 34.6875C23.1306 31.7267 24.0714 28.8434 25.8133 26.4492L36.2773 29.9469C36.7467 30.1013 37.2533 30.1013 37.7227 29.9469L48.1867 26.4492C49.9286 28.8434 50.8694 31.7267 50.875 34.6875ZM48.1867 21.593H48.1578L37 25.3219L25.8422 21.593H25.8133L16.5633 18.5L37 11.6781L57.4367 18.5L48.1867 21.593Z" fill="#3148A3"/>
</svg>
