<svg width="74" height="74" viewBox="0 0 74 74" fill="none" xmlns="http://www.w3.org/2000/svg">
<path d="M15.4166 61.6667C17.1195 61.6667 18.5 60.2862 18.5 58.5833C18.5 56.8805 17.1195 55.5 15.4166 55.5C13.7138 55.5 12.3333 56.8805 12.3333 58.5833C12.3333 60.2862 13.7138 61.6667 15.4166 61.6667Z" fill="#3148A3"/>
<path d="M12.3333 12.3333H18.5V40.0833H12.3333V12.3333Z" fill="#3148A3"/>
<path d="M21.5834 6.16669H9.25002C8.43227 6.16669 7.64801 6.49154 7.06977 7.06977C6.49154 7.64801 6.16669 8.43227 6.16669 9.25002V64.75C6.16669 65.5678 6.49154 66.352 7.06977 66.9303C7.64801 67.5085 8.43227 67.8334 9.25002 67.8334H21.5834C22.4011 67.8334 23.1854 67.5085 23.7636 66.9303C24.3418 66.352 24.6667 65.5678 24.6667 64.75V9.25002C24.6667 8.43227 24.3418 7.64801 23.7636 7.06977C23.1854 6.49154 22.4011 6.16669 21.5834 6.16669ZM21.5834 64.75H9.25002V9.25002H21.5834V64.75ZM43.1667 9.25002V30.8334H33.9167V9.25002H43.1667ZM46.25 6.16669H30.8334V33.9167H46.25V6.16669ZM64.75 9.25002V30.8334H55.5V9.25002H64.75ZM67.8334 6.16669H52.4167V33.9167H67.8334V6.16669ZM43.1667 43.1667V64.75H33.9167V43.1667H43.1667ZM46.25 40.0834H30.8334V67.8334H46.25V40.0834ZM64.75 43.1667V64.75H55.5V43.1667H64.75ZM67.8334 40.0834H52.4167V67.8334H67.8334V40.0834Z" fill="#3148A3"/>
</svg>
