<svg width="74" height="74" viewBox="0 0 74 74" fill="none" xmlns="http://www.w3.org/2000/svg">
<g clip-path="url(#clip0_15_54)">
<path d="M24.0502 48.1C23.7738 48.1 23.4975 48.1405 23.2338 48.2261C21.7353 48.7128 20.1594 49.025 18.5002 49.025C16.8409 49.025 15.265 48.7128 13.7653 48.2261C13.5017 48.1405 13.2265 48.1 12.9502 48.1C5.77447 48.1 -0.038 53.9368 0.000156272 61.1217C0.0163438 64.158 2.51269 66.6 5.55016 66.6H31.4502C34.4876 66.6 36.984 64.158 37.0002 61.1217C37.0383 53.9368 31.2258 48.1 24.0502 48.1ZM18.5002 44.4C24.6306 44.4 29.6002 39.4305 29.6002 33.3C29.6002 27.1696 24.6306 22.2 18.5002 22.2C12.3697 22.2 7.40016 27.1696 7.40016 33.3C7.40016 39.4305 12.3697 44.4 18.5002 44.4ZM68.4502 7.40002H24.0502C20.9896 7.40002 18.5002 9.97268 18.5002 13.1339V18.5C21.2081 18.5 23.7148 19.284 25.9002 20.5582V14.8H66.6002V48.1H59.2002V40.7H44.4002V48.1H35.5849C37.7933 50.0298 39.4144 52.5782 40.1741 55.5H68.4502C71.5107 55.5 74.0002 52.9274 74.0002 49.7662V13.1339C74.0002 9.97268 71.5107 7.40002 68.4502 7.40002Z" fill="#3148A3"/>
</g>
<defs>
<clipPath id="clip0_15_54">
<rect width="74" height="74" fill="white"/>
</clipPath>
</defs>
</svg>
