<svg width="13" height="16" viewBox="0 0 13 16" fill="none" xmlns="http://www.w3.org/2000/svg">
<path d="M3.23993 0.318975L2.52293 0.530608C1.88451 0.719244 1.31437 1.08264 0.879622 1.57803C0.444873 2.07342 0.163608 2.68018 0.0689304 3.3269C-0.22807 5.35309 0.43593 7.7222 2.03693 10.4391C3.63393 13.1492 5.39193 14.8952 7.32693 15.6594C7.94866 15.9049 8.62926 15.9703 9.28783 15.8479C9.9464 15.7254 10.5552 15.4203 11.0419 14.9687L11.5839 14.4651C11.9359 14.1387 12.1549 13.6982 12.2004 13.2256C12.2458 12.7529 12.1145 12.2801 11.8309 11.8951L10.4749 10.0531C10.2916 9.80443 10.0334 9.61819 9.73666 9.5205C9.43987 9.42281 9.11931 9.41856 8.81993 9.50834L6.76893 10.1227L6.71593 10.1325C6.48993 10.1648 5.96793 9.68568 5.31793 8.58245C4.63793 7.42827 4.49793 6.7532 4.68493 6.5788L5.72793 5.62547C6.10934 5.27712 6.36988 4.82052 6.47301 4.31973C6.57613 3.81894 6.51665 3.29909 6.30293 2.83309L5.64093 1.39184C5.44187 0.958128 5.08863 0.610144 4.64706 0.412752C4.20549 0.21536 3.70573 0.18203 3.24093 0.318975H3.23993ZM4.72993 1.79355L5.38993 3.2348C5.51847 3.51427 5.55441 3.82617 5.49271 4.12668C5.43101 4.42719 5.27476 4.7012 5.04593 4.91023L3.99993 5.86454C3.33093 6.48572 3.55293 7.54584 4.45293 9.07234C5.29893 10.5087 6.07093 11.2181 6.90093 11.0946L7.02493 11.0691L9.11293 10.445C9.21274 10.415 9.31964 10.4163 9.41863 10.4488C9.51763 10.4813 9.60376 10.5434 9.66493 10.6263L11.0209 12.4683C11.1629 12.6607 11.2287 12.8972 11.2061 13.1337C11.1835 13.3701 11.074 13.5905 10.8979 13.7537L10.3549 14.2573C10.0073 14.5797 9.57247 14.7975 9.10218 14.8849C8.63189 14.9722 8.14589 14.9255 7.70193 14.7502C6.00393 14.08 4.39893 12.4859 2.90393 9.94925C1.40493 7.40671 0.797931 5.24434 1.05893 3.46603C1.12649 3.004 1.32738 2.57049 1.63795 2.21656C1.94852 1.86263 2.35583 1.60301 2.81193 1.46826L3.52893 1.25663C3.76139 1.18819 4.01132 1.20492 4.23211 1.30371C4.4529 1.4025 4.62949 1.5766 4.72893 1.79355H4.72993Z" fill="white"/>
</svg>
