<svg width="119" height="119" viewBox="0 0 119 119" fill="none" xmlns="http://www.w3.org/2000/svg">
<path d="M27.619 39.1027C26.2021 29.7612 32.7992 21.3494 42.877 18.2628C44.6664 17.7151 46.5972 17.8708 48.2758 18.698C49.9543 19.5251 51.2541 20.9615 51.9098 22.7142L55.1414 31.3417C55.661 32.7295 55.7542 34.2408 55.409 35.6819C55.0638 37.123 54.2959 38.4282 53.204 39.4299L43.591 48.2471C43.1169 48.6827 42.7636 49.2335 42.5655 49.8461C42.3674 50.4586 42.3312 51.112 42.4605 51.7427L42.546 52.1295L42.784 53.1001C42.996 53.9182 43.3158 55.071 43.7658 56.4469C44.6583 59.1802 46.0826 62.8543 48.2023 66.5247C50.3219 70.1952 52.7912 73.2668 54.7101 75.4051C55.7094 76.5185 56.7541 77.5904 57.8413 78.6181L58.1388 78.8933C58.6196 79.3192 59.2025 79.6132 59.8308 79.7468C60.459 79.8804 61.1111 79.849 61.7236 79.6557L74.1666 75.7398C75.5803 75.2954 77.0946 75.2835 78.5152 75.7055C79.9357 76.1276 81.1978 76.9644 82.1396 78.1087L88.0263 85.2561C90.4807 88.2311 90.1907 92.6043 87.3681 95.2335C79.6554 102.422 69.0496 103.898 61.6716 97.9631C52.6281 90.6691 45.0042 81.7733 39.1806 71.7198C33.3089 61.673 29.3863 50.6082 27.619 39.1064V39.1027ZM50.2513 52.2299L58.2317 44.9114C60.4157 42.9078 61.9513 40.2976 62.6417 37.4154C63.3321 34.5332 63.1458 31.5104 62.1067 28.7348L58.8713 20.1073C57.5515 16.5824 54.937 13.6936 51.5608 12.0297C48.1846 10.3658 44.301 10.0521 40.7015 11.1526C28.1879 14.9829 18.1399 26.2023 20.267 40.2183C22.1747 52.6464 26.4101 64.6031 32.7508 75.4609C39.0321 86.3024 47.2548 95.8954 57.0083 103.761C68.0715 112.648 82.8498 109.618 92.4405 100.674C95.1847 98.1163 96.8499 94.6081 97.0966 90.8649C97.3433 87.1217 96.1529 83.4253 93.7681 80.5296L87.8813 73.3821C85.9976 71.0929 83.4727 69.4188 80.6308 68.5747C77.7889 67.7305 74.7596 67.7548 71.9316 68.6444L61.6046 71.8946C61.1424 71.4192 60.6898 70.9344 60.2473 70.4406C58.1249 68.0926 56.2472 65.5345 54.6431 62.806C53.0816 60.0521 51.8044 57.1464 50.8314 54.1339C50.6251 53.5032 50.4317 52.8684 50.2513 52.2299Z" fill="black"/>
</svg>
