<svg width="16" height="16" viewBox="0 0 16 16" fill="none" xmlns="http://www.w3.org/2000/svg">
<path d="M10.8481 15.232L15.4881 1.05599V0.991989C15.5201 0.959989 15.5201 0.959989 15.5201 0.927989V0.863989C15.5201 0.831989 15.4881 0.799989 15.4881 0.767989C15.4861 0.743329 15.4747 0.720401 15.4561 0.703989H15.4241V0.575989H14.9121L0.800142 5.27999C0.714684 5.30496 0.638604 5.35482 0.581608 5.42321C0.524613 5.49161 0.489288 5.57543 0.480142 5.66399C0.476795 5.72825 0.486402 5.79252 0.508391 5.85299C0.53038 5.91346 0.564303 5.96889 0.608142 6.01599L0.704142 6.07999L6.68814 9.37599L10.0481 15.296C10.0481 15.3208 10.0539 15.3453 10.065 15.3675C10.0761 15.3898 10.0923 15.4091 10.1121 15.424C10.1608 15.4638 10.2173 15.4929 10.2779 15.5094C10.3386 15.526 10.402 15.5296 10.4641 15.52C10.5501 15.5175 10.6331 15.4885 10.7019 15.437C10.7706 15.3854 10.8217 15.3138 10.8481 15.232ZM13.4401 1.91999L6.94414 8.47999L2.04814 5.79199L13.4401 1.91999ZM7.58414 9.11999L14.0481 2.55999L10.3041 13.984L7.58414 9.11999Z" fill="black" fill-opacity="0.5"/>
</svg>
