<svg width="16" height="16" viewBox="0 0 16 16" fill="none" xmlns="http://www.w3.org/2000/svg">
<path d="M13.5231 2.27519C13.2169 2.27529 12.9148 2.34534 12.6399 2.47999L8.02227 5.89759L4.33587 3.16479L3.60307 2.62079C3.27126 2.39419 2.87847 2.27367 2.47667 2.27519C2.21234 2.27519 1.95061 2.32725 1.7064 2.42841C1.4622 2.52956 1.24031 2.67782 1.0534 2.86473C0.675929 3.2422 0.463867 3.75416 0.463867 4.28799V12.4384C0.463867 12.7779 0.598724 13.1034 0.838771 13.3435C1.07882 13.5835 1.40439 13.7184 1.74387 13.7184H4.52467V8.82239L8.04467 11.4304L11.4911 8.87039V13.7248H14.2495C14.5889 13.7248 14.9145 13.5899 15.1546 13.3499C15.3946 13.1098 15.5295 12.7843 15.5295 12.4448V4.28799C15.5295 3.75527 15.3183 3.24427 14.9422 2.86698C14.5661 2.48969 14.0558 2.27689 13.5231 2.27519ZM14.5759 12.4384C14.5759 12.5233 14.5422 12.6047 14.4821 12.6647C14.4221 12.7247 14.3407 12.7584 14.2559 12.7584H12.4511V6.96319L8.04467 10.24L3.56467 6.91519V12.7712H1.75027C1.6654 12.7712 1.584 12.7375 1.52399 12.6775C1.46398 12.6175 1.43027 12.5361 1.43027 12.4512V4.28799C1.43111 4.00903 1.5423 3.74174 1.73956 3.54448C1.93681 3.34723 2.20411 3.23604 2.48307 3.23519C2.68424 3.23289 2.8815 3.29084 3.04947 3.40159L8.02227 7.09439L12.2591 3.95199L13.1007 3.31199C13.2605 3.24109 13.4355 3.21124 13.6098 3.22516C13.7841 3.23908 13.9522 3.29633 14.0988 3.39171C14.2453 3.48708 14.3657 3.61756 14.449 3.77129C14.5324 3.92502 14.576 4.09713 14.5759 4.27199V12.4384Z" fill="black" fill-opacity="0.5"/>
</svg>
