<svg width="28" height="28" viewBox="0 0 28 28" fill="none" xmlns="http://www.w3.org/2000/svg">
<path d="M14 15.1667C15.933 15.1667 17.5 13.5997 17.5 11.6667C17.5 9.73375 15.933 8.16675 14 8.16675C12.067 8.16675 10.5 9.73375 10.5 11.6667C10.5 13.5997 12.067 15.1667 14 15.1667Z" stroke="white" stroke-width="2" stroke-linecap="round" stroke-linejoin="round"/>
<path d="M14 2.33337C11.5246 2.33337 9.15067 3.3167 7.40033 5.06704C5.64999 6.81738 4.66666 9.19135 4.66666 11.6667C4.66666 13.874 5.13566 15.3184 6.41666 16.9167L14 25.6667L21.5833 16.9167C22.8643 15.3184 23.3333 13.874 23.3333 11.6667C23.3333 9.19135 22.35 6.81738 20.5997 5.06704C18.8493 3.3167 16.4753 2.33337 14 2.33337V2.33337Z" stroke="white" stroke-width="2" stroke-linecap="round" stroke-linejoin="round"/>
</svg>
