<svg width="16" height="16" viewBox="0 0 16 16" fill="none" xmlns="http://www.w3.org/2000/svg">
<path d="M11.9641 7.60625L4.92031 2.10469C4.90191 2.0902 4.87979 2.08119 4.8565 2.07871C4.8332 2.07622 4.80968 2.08035 4.78863 2.09063C4.76758 2.10091 4.74986 2.11692 4.7375 2.13682C4.72514 2.15672 4.71864 2.1797 4.71875 2.20312V3.41094C4.71875 3.4875 4.75469 3.56094 4.81406 3.60781L10.4391 8L4.81406 12.3922C4.75313 12.4391 4.71875 12.5125 4.71875 12.5891V13.7969C4.71875 13.9016 4.83906 13.9594 4.92031 13.8953L11.9641 8.39375C12.0239 8.34705 12.0724 8.28731 12.1057 8.21908C12.139 8.15085 12.1563 8.07593 12.1563 8C12.1563 7.92407 12.139 7.84915 12.1057 7.78092C12.0724 7.71269 12.0239 7.65295 11.9641 7.60625Z" fill="#333333"/>
</svg>
