<svg width="28" height="28" viewBox="0 0 28 28" fill="none" xmlns="http://www.w3.org/2000/svg">
<g clip-path="url(#clip0_27_44)">
<path d="M12.6 0C9.25827 0 6.05341 1.3275 3.69045 3.69045C1.3275 6.05341 0 9.25827 0 12.6C0 15.9417 1.3275 19.1466 3.69045 21.5095C6.05341 23.8725 9.25827 25.2 12.6 25.2C15.9417 25.2 19.1466 23.8725 21.5095 21.5095C23.8725 19.1466 25.2 15.9417 25.2 12.6C25.2 9.25827 23.8725 6.05341 21.5095 3.69045C19.1466 1.3275 15.9417 0 12.6 0V0ZM1.554 13.552H5.068C5.124 14.826 5.3018 16.0916 5.6 17.332H2.576C2.01209 16.1432 1.66594 14.863 1.554 13.552ZM13.552 5.992V1.666C14.9012 2.17871 16.0098 3.17747 16.66 4.466C16.947 4.9518 17.2004 5.4572 17.416 5.978L13.552 5.992ZM18.06 7.882C18.3848 9.1182 18.578 10.3852 18.634 11.662H13.552V7.882H18.06ZM11.648 1.666V5.992H7.784C7.99997 5.47077 8.2526 4.96551 8.54 4.48C9.18746 3.18619 10.2964 2.18213 11.648 1.666ZM11.648 7.882V11.662H6.58C6.636 10.3852 6.8292 9.1182 7.154 7.882H11.648ZM5.068 11.648H1.554C1.66594 10.337 2.01209 9.05677 2.576 7.868H5.6C5.30123 9.1079 5.12307 10.3738 5.068 11.648ZM6.58 13.552H11.648V17.332H7.154C6.82925 16.0959 6.63684 14.8288 6.58 13.552ZM11.662 19.152V23.478C10.3128 22.9653 9.20422 21.9665 8.554 20.678C8.2666 20.1925 8.01397 19.6872 7.798 19.166L11.662 19.152ZM13.552 23.478V19.222H17.416C17.2 19.7432 16.9474 20.2485 16.66 20.734C16.0098 22.0225 14.9012 23.0213 13.552 23.534V23.478ZM13.552 17.262V13.482H18.62C18.5632 14.7588 18.3708 16.0259 18.046 17.262H13.552ZM20.146 13.482H23.66C23.5481 14.793 23.2019 16.0732 22.638 17.262H19.6C19.894 16.044 20.0718 14.8022 20.132 13.552L20.146 13.482ZM20.146 11.592C20.0819 10.3408 19.8991 9.09859 19.6 7.882H22.624C23.1882 9.072 23.534 10.3516 23.646 11.662L20.146 11.592ZM21.546 5.992H19.04C18.5866 4.71842 17.9294 3.52692 17.094 2.464C18.8361 3.24601 20.3494 4.46047 21.49 5.992H21.546ZM8.106 2.464C7.27065 3.52692 6.61343 4.71842 6.16 5.992H3.71C4.85061 4.46047 6.36387 3.24601 8.106 2.464ZM3.696 19.264H6.16C6.61343 20.5376 7.27065 21.7291 8.106 22.792C6.35905 21.9982 4.84532 20.7689 3.71 19.222L3.696 19.264ZM17.08 22.792C17.9154 21.7291 18.5726 20.5376 19.026 19.264H21.49C20.3424 20.775 18.8298 21.9697 17.094 22.736L17.08 22.792Z" fill="white"/>
</g>
<defs>
<clipPath id="clip0_27_44">
<rect width="28" height="28" fill="white"/>
</clipPath>
</defs>
</svg>
