<svg width="28" height="28" viewBox="0 0 28 28" fill="none" xmlns="http://www.w3.org/2000/svg">
<path d="M24.8889 4.66663H3.1111C2.69854 4.66663 2.30288 4.83051 2.01115 5.12224C1.71943 5.41396 1.55554 5.80962 1.55554 6.22218V21.7777C1.55554 22.1903 1.71943 22.586 2.01115 22.8777C2.30288 23.1694 2.69854 23.3333 3.1111 23.3333H24.8889C25.3014 23.3333 25.6971 23.1694 25.9888 22.8777C26.2805 22.586 26.4444 22.1903 26.4444 21.7777V6.22218C26.4444 5.80962 26.2805 5.41396 25.9888 5.12224C25.6971 4.83051 25.3014 4.66663 24.8889 4.66663ZM23.6911 21.7777H4.40221L9.84665 16.1466L8.72665 15.0655L3.1111 20.8755V7.4044L12.7789 17.0255C13.0703 17.3152 13.4646 17.4779 13.8755 17.4779C14.2865 17.4779 14.6808 17.3152 14.9722 17.0255L24.8889 7.16329V20.7744L19.1644 15.05L18.0678 16.1466L23.6911 21.7777ZM4.12999 6.22218H23.6289L13.8755 15.9211L4.12999 6.22218Z" fill="white"/>
</svg>
