<svg width="48" height="48" viewBox="0 0 48 48" fill="none" xmlns="http://www.w3.org/2000/svg">
<g clip-path="url(#clip0_27_29)">
<path d="M24 -0.0510254C10.7385 -0.0510254 -0.0524902 10.737 -0.0524902 24C-0.0524902 37.263 10.7385 48.051 24 48.051C37.2615 48.051 48.0525 37.263 48.0525 24C48.0525 10.737 37.2615 -0.0510254 24 -0.0510254ZM24 46.449C11.622 46.449 1.55251 36.378 1.55251 24C1.55251 11.622 11.622 1.55097 24 1.55097C36.378 1.55097 46.4475 11.622 46.4475 24C46.4475 36.378 36.378 46.449 24 46.449Z" fill="white"/>
<path d="M29.25 10.4999H25.248C20.151 10.4489 19.5 13.6034 19.5 17.0174V19.4999H17.25C17.1483 19.4864 17.0449 19.4964 16.9477 19.5293C16.8505 19.5622 16.7622 19.617 16.6896 19.6896C16.6171 19.7621 16.5623 19.8504 16.5294 19.9476C16.4965 20.0448 16.4864 20.1482 16.5 20.2499V24.7499C16.4864 24.8516 16.4965 24.9551 16.5294 25.0523C16.5623 25.1495 16.6171 25.2378 16.6896 25.3103C16.7622 25.3829 16.8505 25.4377 16.9477 25.4706C17.0449 25.5035 17.1483 25.5135 17.25 25.4999H19.5V36.7499C19.4875 36.8518 19.4985 36.9552 19.532 37.0522C19.5656 37.1492 19.6209 37.2372 19.6937 37.3096C19.7665 37.382 19.8549 37.4367 19.9521 37.4697C20.0493 37.5027 20.1527 37.513 20.2545 37.4999H24.837C25.2795 37.5509 25.638 37.1924 25.497 36.7499L25.5 25.4999H29.25C29.3517 25.5135 29.4552 25.5035 29.5524 25.4706C29.6495 25.4377 29.7378 25.3829 29.8104 25.3103C29.8829 25.2378 29.9378 25.1495 29.9707 25.0523C30.0036 24.9551 30.0136 24.8516 30 24.7499V20.2499C30.0136 20.1482 30.0036 20.0448 29.9707 19.9476C29.9378 19.8504 29.8829 19.7621 29.8104 19.6896C29.7378 19.617 29.6495 19.5622 29.5524 19.5293C29.4552 19.4964 29.3517 19.4864 29.25 19.4999H25.4955L25.5 17.2499C25.6455 16.2914 25.6455 16.4474 26.535 16.4999H29.2185C29.427 16.4534 29.649 16.4789 29.805 16.3274C29.961 16.1759 30.051 15.9689 29.9985 15.7499V11.2499C30.0124 11.1483 30.0026 11.0449 29.9699 10.9477C29.9372 10.8505 29.8825 10.7621 29.81 10.6896C29.7376 10.617 29.6493 10.5621 29.5522 10.5292C29.4551 10.4963 29.3517 10.4863 29.25 10.4999ZM28.4475 14.9159L26.5665 14.8439C24.237 14.8439 24.042 16.1084 24.042 17.4029L24.036 20.2469C24.0358 20.3523 24.0564 20.4566 24.0966 20.5539C24.1367 20.6513 24.1957 20.7398 24.2701 20.8143C24.3445 20.8888 24.4329 20.948 24.5301 20.9883C24.6274 21.0287 24.7317 21.0494 24.837 21.0494H28.5V23.9474H24.84C24.6274 23.9474 24.4235 24.0318 24.2731 24.182C24.1226 24.3321 24.0379 24.5359 24.0375 24.7484L24.036 35.9999H21V24.7499C21 24.3074 20.6985 23.9489 20.2545 23.9489H18V21.0509H20.2545C20.3598 21.0511 20.464 21.0305 20.5613 20.9904C20.6586 20.9502 20.747 20.8913 20.8215 20.8169C20.9715 20.6654 20.9985 20.4614 20.9985 20.2484V17.0159C20.9985 13.6529 21.678 12.0509 25.2465 12.0509H28.446V14.9159H28.4475Z" fill="white"/>
</g>
<defs>
<clipPath id="clip0_27_29">
<rect width="48" height="48" fill="white"/>
</clipPath>
</defs>
</svg>
