<svg width="42" height="44" viewBox="0 0 42 44" fill="none" xmlns="http://www.w3.org/2000/svg">
<path d="M21 11.7349C19.0964 11.7349 17.2355 12.3172 15.6526 13.4083C14.0698 14.4993 12.8362 16.0501 12.1077 17.8645C11.3792 19.6789 11.1886 21.6754 11.5599 23.6015C11.9313 25.5276 12.848 27.2969 14.1941 28.6856C15.5402 30.0742 17.2552 31.0199 19.1223 31.403C20.9893 31.7862 22.9246 31.5895 24.6833 30.838C26.4421 30.0865 27.9453 28.8138 29.0029 27.1809C30.0605 25.548 30.625 23.6282 30.625 21.6643C30.625 19.0309 29.6109 16.5053 27.8059 14.6431C26.0009 12.781 23.5527 11.7349 21 11.7349ZM21 29.7885C19.4425 29.7885 17.9199 29.312 16.6249 28.4193C15.3298 27.5266 14.3205 26.2578 13.7244 24.7733C13.1284 23.2888 12.9725 21.6553 13.2763 20.0794C13.5802 18.5035 14.3302 17.0559 15.4315 15.9197C16.5329 14.7835 17.9361 14.0098 19.4637 13.6963C20.9913 13.3828 22.5747 13.5437 24.0136 14.1586C25.4526 14.7735 26.6825 15.8148 27.5478 17.1508C28.4131 18.4868 28.875 20.0575 28.875 21.6643C28.875 23.819 28.0453 25.8854 26.5685 27.409C25.0916 28.9325 23.0886 29.7885 21 29.7885ZM30.625 0H11.375C8.35816 0 5.46489 1.23635 3.33166 3.43706C1.19843 5.63777 0 8.62258 0 11.7349V31.5938C0 33.1349 0.294223 34.6608 0.86587 36.0846C1.43752 37.5083 2.27539 38.8019 3.33166 39.8916C5.46489 42.0923 8.35816 43.3287 11.375 43.3287H30.625C32.1188 43.3287 33.5979 43.0252 34.978 42.4354C36.3581 41.8457 37.6121 40.9813 38.6683 39.8916C39.7246 38.8019 40.5625 37.5083 41.1341 36.0846C41.7058 34.6608 42 33.1349 42 31.5938V11.7349C42 10.1938 41.7058 8.66786 41.1341 7.24412C40.5625 5.82038 39.7246 4.52674 38.6683 3.43706C37.6121 2.34738 36.3581 1.48299 34.978 0.893262C33.5979 0.303531 32.1188 0 30.625 0ZM40.25 31.5938C40.25 34.2273 39.2359 36.7529 37.4309 38.615C35.6259 40.4772 33.1777 41.5233 30.625 41.5233H11.375C8.82229 41.5233 6.37414 40.4772 4.5691 38.615C2.76406 36.7529 1.75 34.2273 1.75 31.5938V11.7349C1.75 9.10139 2.76406 6.57578 4.5691 4.71364C6.37414 2.8515 8.82229 1.80536 11.375 1.80536H30.625C33.1777 1.80536 35.6259 2.8515 37.4309 4.71364C39.2359 6.57578 40.25 9.10139 40.25 11.7349V31.5938ZM34.125 9.92949C34.125 10.2866 34.0224 10.6356 33.8301 10.9325C33.6378 11.2294 33.3645 11.4608 33.0447 11.5974C32.7249 11.7341 32.3731 11.7698 32.0336 11.7002C31.6941 11.6305 31.3823 11.4586 31.1376 11.2061C30.8928 10.9536 30.7262 10.6319 30.6586 10.2817C30.5911 9.93149 30.6258 9.56849 30.7582 9.23861C30.8907 8.90872 31.115 8.62676 31.4028 8.42839C31.6905 8.23001 32.0289 8.12413 32.375 8.12413C32.8391 8.12413 33.2842 8.31434 33.6124 8.65291C33.9406 8.99148 34.125 9.45068 34.125 9.92949Z" fill="white"/>
</svg>
