<svg width="28" height="28" viewBox="0 0 28 28" fill="none" xmlns="http://www.w3.org/2000/svg">
<path d="M6.49863 9.20057C6.16526 7.00257 7.71751 5.02332 10.0888 4.29707C10.5098 4.1682 10.9641 4.20482 11.3591 4.39945C11.754 4.59408 12.0598 4.93206 12.2141 5.34444L12.9745 7.37444C13.0968 7.70098 13.1187 8.0566 13.0375 8.39568C12.9562 8.73477 12.7756 9.04186 12.5186 9.27757L10.2568 11.3522C10.1452 11.4547 10.0621 11.5843 10.0155 11.7284C9.96886 11.8726 9.96034 12.0263 9.99076 12.1747L10.0109 12.2657L10.0669 12.4941C10.1168 12.6866 10.192 12.9578 10.2979 13.2816C10.5079 13.9247 10.843 14.7892 11.3418 15.6528C11.8405 16.5164 12.4215 17.2392 12.873 17.7423C13.1082 18.0043 13.3539 18.2565 13.6098 18.4983L13.6798 18.5631C13.7929 18.6633 13.9301 18.7325 14.0779 18.7639C14.2257 18.7953 14.3791 18.7879 14.5233 18.7424L17.451 17.8211C17.7837 17.7165 18.14 17.7137 18.4742 17.813C18.8085 17.9123 19.1054 18.1092 19.327 18.3784L20.7121 20.0602C21.2896 20.7602 21.2214 21.7892 20.5573 22.4078C18.7425 24.0992 16.247 24.4466 14.511 23.0501C12.3831 21.3339 10.5893 19.2407 9.21901 16.8752C7.83743 14.5112 6.91448 11.9077 6.49863 9.20144V9.20057ZM11.8239 12.2893L13.7016 10.5673C14.2155 10.0959 14.5768 9.48172 14.7393 8.80355C14.9017 8.12538 14.8579 7.41415 14.6134 6.76107L13.8521 4.73107C13.5416 3.90168 12.9264 3.22195 12.132 2.83045C11.3376 2.43894 10.4238 2.36513 9.57688 2.62407C6.63251 3.52532 4.26826 6.16519 4.76876 9.46307C5.21763 12.3873 6.21419 15.2007 7.70613 17.7554C9.18407 20.3064 11.1188 22.5636 13.4138 24.4142C16.0169 26.5054 19.4941 25.7923 21.7508 23.6879C22.3965 23.0861 22.7883 22.2607 22.8463 21.3799C22.9044 20.4992 22.6243 19.6294 22.0631 18.9481L20.678 17.2663C20.2348 16.7277 19.6407 16.3338 18.972 16.1352C18.3033 15.9365 17.5905 15.9422 16.9251 16.1516L14.4953 16.9163C14.3865 16.8045 14.28 16.6904 14.1759 16.5742C13.6765 16.0217 13.2347 15.4198 12.8573 14.7778C12.4898 14.1298 12.1893 13.4462 11.9604 12.7373C11.9118 12.5889 11.8663 12.4396 11.8239 12.2893Z" fill="white"/>
</svg>
