<svg width="48" height="48" viewBox="0 0 48 48" fill="none" xmlns="http://www.w3.org/2000/svg">
<g clip-path="url(#clip0_27_35)">
<path d="M24 -0.0510254C10.7385 -0.0510254 -0.0524902 10.737 -0.0524902 24C-0.0524902 37.263 10.7385 48.051 24 48.051C37.2615 48.051 48.0525 37.263 48.0525 24C48.0525 10.737 37.2615 -0.0510254 24 -0.0510254ZM24 46.449C11.622 46.449 1.55251 36.378 1.55251 24C1.55251 11.622 11.622 1.55097 24 1.55097C36.378 1.55097 46.4475 11.622 46.4475 24C46.4475 36.378 36.378 46.449 24 46.449Z" fill="white"/>
<path d="M37.191 16.569C37.3574 16.261 37.4945 15.9381 37.6005 15.6045C37.6496 15.4497 37.6506 15.2837 37.6034 15.1284C37.5562 14.9731 37.4629 14.8358 37.336 14.7345C37.2091 14.6333 37.0545 14.5729 36.8926 14.5614C36.7306 14.5499 36.569 14.5877 36.429 14.67C35.6604 15.1266 34.8284 15.4668 33.96 15.6795C32.9059 14.7281 31.537 14.2007 30.117 14.199C29.3456 14.1996 28.5823 14.3559 27.8727 14.6587C27.1632 14.9614 26.5221 15.4043 25.9878 15.9608C25.4536 16.5173 25.0373 17.176 24.7637 17.8973C24.4902 18.6186 24.3651 19.3877 24.396 20.1585C21.0226 19.7338 17.942 18.0267 15.7935 15.3915C15.7112 15.2916 15.606 15.2131 15.4869 15.1627C15.3677 15.1122 15.2382 15.0912 15.1092 15.1015C14.9802 15.1118 14.8556 15.1531 14.746 15.2219C14.6364 15.2906 14.545 15.3848 14.4795 15.4965C13.9876 16.3409 13.7202 17.2972 13.7028 18.2743C13.6855 19.2514 13.9188 20.2167 14.3805 21.078C14.2673 21.0971 14.1585 21.1367 14.0595 21.195C13.9383 21.2723 13.8384 21.3789 13.7692 21.505C13.7 21.6311 13.6637 21.7726 13.6635 21.9165C13.6635 23.619 14.421 25.182 15.642 26.244L15.5895 26.2965C15.4974 26.4008 15.4339 26.5272 15.4055 26.6635C15.3771 26.7997 15.3847 26.941 15.4275 27.0735C15.6821 27.8678 16.1073 28.5968 16.6731 29.2096C17.239 29.8224 17.932 30.3041 18.7035 30.621C17.1189 31.394 15.3456 31.6955 13.5945 31.4895C13.4145 31.4711 13.2336 31.513 13.0799 31.6086C12.9263 31.7041 12.8087 31.8479 12.7455 32.0175C12.6849 32.1883 12.6838 32.3746 12.7423 32.5461C12.8008 32.7176 12.9156 32.8644 13.068 32.9625C15.4486 34.4903 18.2179 35.302 21.0465 35.301C30.3165 35.301 35.8575 27.771 35.8575 20.4915L35.856 20.2455C36.7544 19.5441 37.5348 18.7035 38.1675 17.7555C38.2634 17.6122 38.3105 17.4418 38.3019 17.2696C38.2934 17.0974 38.2296 16.9326 38.12 16.7995C38.0105 16.6664 37.861 16.5721 37.6937 16.5306C37.5263 16.489 37.3501 16.5025 37.191 16.569ZM34.5735 19.2015C34.4647 19.2797 34.3772 19.384 34.319 19.5048C34.2608 19.6256 34.2339 19.7591 34.2405 19.893C34.2495 20.091 34.254 20.292 34.254 20.49C34.254 26.982 29.3145 33.6975 21.048 33.6975C19.5737 33.6982 18.1098 33.4507 16.7175 32.9655C18.3849 32.6459 19.9513 31.9309 21.285 30.8805C21.4149 30.7781 21.5099 30.6381 21.5572 30.4797C21.6044 30.3213 21.6016 30.1521 21.5491 29.9953C21.4966 29.8386 21.3969 29.7018 21.2637 29.6039C21.1305 29.5059 20.9703 29.4515 20.805 29.448C20.1583 29.4356 19.5235 29.2714 18.9518 28.9687C18.3802 28.6659 17.8877 28.233 17.514 27.705C17.8935 27.6795 18.2655 27.6165 18.627 27.519C18.802 27.4721 18.9559 27.3674 19.0637 27.2219C19.1715 27.0763 19.2267 26.8985 19.2205 26.7175C19.2142 26.5365 19.1468 26.363 19.0292 26.2252C18.9116 26.0874 18.7508 25.9936 18.573 25.959C17.8426 25.8104 17.1662 25.466 16.6164 24.9627C16.0666 24.4593 15.6639 23.816 15.4515 23.1015C15.8505 23.202 16.26 23.2605 16.6695 23.274C17.022 23.2725 17.349 23.0565 17.4585 22.7175C17.568 22.3785 17.439 22.005 17.1405 21.807C16.4347 21.3367 15.8913 20.6601 15.5845 19.8695C15.2776 19.0788 15.2223 18.2127 15.426 17.3895C18.0316 20.0629 21.5499 21.655 25.278 21.8475C25.542 21.849 25.773 21.7545 25.9335 21.561C26.094 21.3675 26.1555 21.111 26.0985 20.865C25.8934 19.9815 25.9851 19.055 26.3596 18.2289C26.7341 17.4028 27.3704 16.7232 28.1701 16.2951C28.9697 15.8671 29.8882 15.7146 30.7833 15.8612C31.6783 16.0078 32.5002 16.4453 33.1215 17.106C33.2147 17.2053 33.3316 17.2794 33.4612 17.3211C33.5908 17.3628 33.7289 17.3709 33.8625 17.3445C34.11 17.295 34.3545 17.238 34.596 17.172C34.4872 17.2535 34.374 17.3291 34.257 17.3985C34.1015 17.4938 33.983 17.6392 33.9212 17.8108C33.8594 17.9824 33.8579 18.17 33.9169 18.3426C33.976 18.5151 34.092 18.6625 34.246 18.7603C34.4 18.858 34.5827 18.9004 34.764 18.8805L35.037 18.846C34.8867 18.9698 34.7321 19.0884 34.5735 19.2015Z" fill="white"/>
</g>
<defs>
<clipPath id="clip0_27_35">
<rect width="48" height="48" fill="white"/>
</clipPath>
</defs>
</svg>
