<svg width="56" height="67" viewBox="0 0 56 67" fill="none" xmlns="http://www.w3.org/2000/svg">
<path d="M50.2973 19.7991C50.0315 18.6344 49.5108 17.5725 48.7874 16.7196C48.064 15.8667 47.1634 15.2529 46.1755 14.9394C43.4758 13.7097 17.3215 13.1072 9.7335 14.9738C8.74551 15.2874 7.84472 15.9015 7.12134 16.7546C6.39795 17.6077 5.87735 18.6699 5.61167 19.8349C4.3925 26.1388 4.30033 39.7674 5.642 46.2131C5.90787 47.3778 6.42854 48.4397 7.15192 49.2926C7.87529 50.1454 8.77598 50.7593 9.76383 51.0728C15.1107 52.5239 40.53 52.7275 46.2058 51.0728C47.1937 50.7593 48.0944 50.1454 48.8178 49.2926C49.5411 48.4397 50.0618 47.3778 50.3277 46.2131C51.6273 39.3451 51.7195 26.5611 50.2973 19.7991V19.7991Z" stroke="white" stroke-linecap="round" stroke-linejoin="round"/>
<path d="M35.6615 33.0055L23.4733 24.7648V41.2462L35.6615 33.0055Z" stroke="white" stroke-linecap="round" stroke-linejoin="round"/>
</svg>
