<svg width="13" height="17" viewBox="0 0 13 17" fill="none" xmlns="http://www.w3.org/2000/svg">
<path d="M6.105 0.606079C4.48644 0.607991 2.93472 1.2525 1.79023 2.39824C0.645732 3.54398 0.00191595 5.09738 6.49509e-06 6.71769C-0.00193206 8.04181 0.43012 9.33001 1.22989 10.3847C1.22989 10.3847 1.39639 10.6041 1.42358 10.6358L6.105 16.1629L10.7886 10.633C10.8131 10.6036 10.9801 10.3847 10.9801 10.3847L10.9807 10.383C11.78 9.3288 12.2119 8.0412 12.21 6.71769C12.2081 5.09738 11.5643 3.54398 10.4198 2.39824C9.27528 1.2525 7.72356 0.607991 6.105 0.606079ZM6.105 8.9401C5.66593 8.9401 5.23671 8.80975 4.87164 8.56555C4.50656 8.32135 4.22202 7.97426 4.05399 7.56817C3.88596 7.16208 3.842 6.71523 3.92766 6.28412C4.01332 5.85302 4.22475 5.45702 4.53522 5.14621C4.8457 4.8354 5.24126 4.62374 5.6719 4.53799C6.10254 4.45224 6.5489 4.49625 6.95456 4.66446C7.36021 4.83267 7.70692 5.11752 7.95086 5.48299C8.1948 5.84846 8.325 6.27814 8.325 6.71769C8.32426 7.30688 8.09014 7.87173 7.67396 8.28836C7.25779 8.70498 6.69355 8.93936 6.105 8.9401Z" fill="#F5F5F5"/>
</svg>
