<svg width="119" height="119" viewBox="0 0 119 119" fill="none" xmlns="http://www.w3.org/2000/svg">
<path d="M105.778 19.8333H13.2224C11.4691 19.8333 9.7875 20.5298 8.54768 21.7697C7.30785 23.0095 6.61133 24.691 6.61133 26.4444V92.5555C6.61133 94.3089 7.30785 95.9905 8.54768 97.2303C9.7875 98.4701 11.4691 99.1666 13.2224 99.1666H105.778C107.531 99.1666 109.213 98.4701 110.453 97.2303C111.693 95.9905 112.389 94.3089 112.389 92.5555V26.4444C112.389 24.691 111.693 23.0095 110.453 21.7697C109.213 20.5298 107.531 19.8333 105.778 19.8333ZM100.687 92.5555H18.7097L41.8485 68.6233L37.0886 64.0286L13.2224 88.7211V31.4689L54.3105 72.3586C55.5492 73.5899 57.2248 74.2811 58.9713 74.2811C60.7179 74.2811 62.3935 73.5899 63.6322 72.3586L105.778 30.4441V88.2914L81.4491 63.9625L76.7883 68.6233L100.687 92.5555ZM17.5527 26.4444H100.423L58.9713 67.6647L17.5527 26.4444Z" fill="black"/>
</svg>
