<svg width="119" height="119" viewBox="0 0 119 119" fill="none" xmlns="http://www.w3.org/2000/svg">
<g clip-path="url(#clip0_84_169)">
<path d="M59.5003 -0.126465C26.6228 -0.126465 -0.129883 26.6188 -0.129883 59.5C-0.129883 92.3812 26.6228 119.126 59.5003 119.126C92.3777 119.126 119.13 92.3812 119.13 59.5C119.13 26.6188 92.3777 -0.126465 59.5003 -0.126465ZM59.5003 115.155C28.8131 115.155 3.84918 90.1871 3.84918 59.5C3.84918 28.8128 28.8131 3.84516 59.5003 3.84516C90.1874 3.84516 115.151 28.8128 115.151 59.5C115.151 90.1871 90.1874 115.155 59.5003 115.155Z" fill="black"/>
<path d="M72.5155 26.0312H62.5939C49.9576 25.9048 48.3437 33.7253 48.3437 42.1892V48.3437H42.7655C42.5134 48.31 42.2569 48.3349 42.016 48.4165C41.7751 48.498 41.5562 48.634 41.3763 48.8138C41.1964 48.9937 41.0605 49.2126 40.9789 49.4535C40.8974 49.6945 40.8725 49.951 40.9062 50.2031V61.3593C40.8725 61.6115 40.8974 61.868 40.9789 62.1089C41.0605 62.3498 41.1964 62.5687 41.3763 62.7486C41.5562 62.9285 41.7751 63.0644 42.016 63.146C42.2569 63.2275 42.5134 63.2524 42.7655 63.2187H48.3437V91.1093C48.3127 91.3619 48.3398 91.6182 48.4231 91.8587C48.5063 92.0992 48.6434 92.3175 48.8238 92.4969C49.0043 92.6763 49.2234 92.812 49.4644 92.8938C49.7053 92.9756 49.9618 93.0012 50.2142 92.9687H61.575C62.672 93.0952 63.5608 92.2064 63.2112 91.1093L63.2187 63.2187H72.5155C72.7677 63.2524 73.0242 63.2275 73.2651 63.146C73.506 63.0644 73.7249 62.9285 73.9048 62.7486C74.0847 62.5687 74.2206 62.3498 74.3022 62.1089C74.3837 61.868 74.4086 61.6115 74.3749 61.3593V50.2031C74.4086 49.951 74.3837 49.6945 74.3022 49.4535C74.2206 49.2126 74.0847 48.9937 73.9048 48.8138C73.7249 48.634 73.506 48.498 73.2651 48.4165C73.0242 48.3349 72.7677 48.31 72.5155 48.3437H63.2075L63.2187 42.7656C63.5794 40.3893 63.5794 40.7761 65.7846 40.9062H72.4375C72.9544 40.7909 73.5047 40.8542 73.8915 40.4786C74.2782 40.103 74.5014 39.5898 74.3712 39.0468V27.8906C74.4055 27.6387 74.3812 27.3822 74.3002 27.1413C74.2191 26.9003 74.0835 26.6813 73.9039 26.5013C73.7243 26.3214 73.5056 26.1853 73.2647 26.1038C73.0239 26.0222 72.7675 25.9974 72.5155 26.0312ZM70.526 36.9792L65.8627 36.8007C60.0875 36.8007 59.604 39.9356 59.604 43.1449L59.5892 50.1957C59.5887 50.4567 59.6397 50.7154 59.7393 50.9567C59.8388 51.1981 59.985 51.4174 60.1695 51.6022C60.3539 51.787 60.573 51.9336 60.8142 52.0337C61.0554 52.1337 61.3139 52.1852 61.575 52.1852H70.6562V59.3698H61.5824C61.0554 59.3698 60.5499 59.5789 60.1769 59.9512C59.8039 60.3235 59.5939 60.8286 59.5929 61.3556L59.5892 89.25H52.0624V61.3593C52.0624 60.2623 51.315 59.3735 50.2142 59.3735H44.6249V52.1889H50.2142C50.4751 52.1893 50.7336 52.1383 50.9748 52.0387C51.216 51.9392 51.4352 51.7931 51.6199 51.6088C51.9918 51.2332 52.0587 50.7274 52.0587 50.1994V42.1855C52.0587 33.848 53.7433 29.8764 62.5902 29.8764H70.5223V36.9792H70.526Z" fill="black"/>
</g>
<defs>
<clipPath id="clip0_84_169">
<rect width="119" height="119" fill="white"/>
</clipPath>
</defs>
</svg>
