<svg width="16" height="16" viewBox="0 0 16 16" fill="none" xmlns="http://www.w3.org/2000/svg">
<path d="M10.5604 7.8528H5.44039C4.29657 7.85279 3.19937 8.30607 2.38907 9.11337C1.57877 9.92067 1.12142 11.0162 1.11719 12.16V15.68H14.8772V12.16C14.873 11.0173 14.4165 9.92275 13.6076 9.11563C12.7987 8.30851 11.7031 7.85448 10.5604 7.8528ZM13.9172 14.72H2.07719V12.16C2.08142 11.2708 2.43762 10.4195 3.06789 9.79219C3.69815 9.16493 4.55118 8.81279 5.44039 8.8128H10.5604C11.4485 8.81448 12.2999 9.16736 12.9288 9.79445C13.5576 10.4215 13.913 11.2719 13.9172 12.16V14.72Z" fill="black" fill-opacity="0.5"/>
<path d="M7.9998 7.32799C8.67384 7.32799 9.33274 7.12812 9.89318 6.75364C10.4536 6.37917 10.8904 5.84691 11.1484 5.22418C11.4063 4.60145 11.4738 3.91621 11.3423 3.25513C11.2108 2.59404 10.8862 1.98679 10.4096 1.51017C9.933 1.03356 9.32575 0.708977 8.66466 0.577479C8.00358 0.44598 7.31834 0.51347 6.69561 0.771414C6.07288 1.02936 5.54062 1.46617 5.16615 2.02661C4.79167 2.58705 4.5918 3.24596 4.5918 3.91999C4.5918 4.82385 4.95085 5.69069 5.58998 6.32981C6.2291 6.96894 7.09594 7.32799 7.9998 7.32799ZM7.9998 1.47199C8.48397 1.47199 8.95726 1.61557 9.35983 1.88456C9.7624 2.15355 10.0762 2.53587 10.2615 2.98319C10.4467 3.4305 10.4952 3.92271 10.4008 4.39758C10.3063 4.87244 10.0732 5.30863 9.73079 5.65099C9.38843 5.99335 8.95224 6.2265 8.47738 6.32096C8.00251 6.41541 7.5103 6.36694 7.06299 6.18165C6.61567 5.99637 6.23335 5.6826 5.96436 5.28003C5.69537 4.87746 5.5518 4.40416 5.5518 3.91999C5.55264 3.271 5.81083 2.64884 6.26973 2.18993C6.72864 1.73103 7.35081 1.47284 7.9998 1.47199Z" fill="black" fill-opacity="0.5"/>
</svg>
