<svg width="16" height="16" viewBox="0 0 16 16" fill="none" xmlns="http://www.w3.org/2000/svg">
<path d="M15.4753 11.84C15.343 11.524 15.1429 11.2409 14.8891 11.0109C14.6352 10.7808 14.3339 10.6094 14.0065 10.5088C13.5649 10.384 13.1233 10.2464 12.6849 10.1088L12.0833 9.92C11.7049 9.81058 11.3039 9.80577 10.923 9.90606C10.5421 10.0064 10.1955 10.208 9.92006 10.4896L9.42726 10.9696C8.40139 10.6307 7.47171 10.0509 6.71616 9.27862C5.96061 8.50637 5.40121 7.56423 5.08486 6.5312C5.58406 6.08 6.54406 5.024 6.01606 3.84L5.84966 3.2576L5.66086 2.5888L5.46886 1.9488C5.39934 1.70445 5.28065 1.47686 5.12006 1.28C4.86263 0.951582 4.52247 0.697561 4.13446 0.544004C3.60516 0.356733 3.0297 0.344394 2.49286 0.508804C2.18084 0.61936 1.90218 0.8077 1.68326 1.056L1.56166 1.1712C1.30406 1.40532 1.06145 1.65541 0.835259 1.92C0.723092 2.05006 0.62345 2.19042 0.537659 2.3392C0.445899 2.5056 0.392337 2.69033 0.380859 2.88C0.380859 2.9888 0.380859 3.1008 0.380859 3.2V3.3184C0.380859 3.5776 0.380859 3.84 0.403259 4.096C0.492365 5.60107 0.865889 7.07562 1.50406 8.4416C1.91812 9.31709 2.43366 10.1409 3.04006 10.896C3.63859 11.6449 4.32029 12.3234 5.07206 12.9184C5.81809 13.5127 6.62979 14.0194 7.49126 14.4288C8.34911 14.8454 9.25365 15.158 10.1857 15.36C10.9795 15.5319 11.7894 15.6188 12.6017 15.6192H12.9217C13.2894 15.6206 13.6472 15.5002 13.9393 15.2768C14.0519 15.1763 14.1587 15.0694 14.2593 14.9568L14.3777 14.8352L15.0945 14.1312C15.3501 13.8484 15.517 13.4968 15.5745 13.12C15.6744 12.6933 15.6397 12.2462 15.4753 11.84ZM14.6337 12.9024C14.6088 13.0873 14.5455 13.2649 14.4481 13.424L13.7121 14.1408L13.5745 14.2816C13.4986 14.3636 13.4185 14.4415 13.3345 14.5152C13.2028 14.603 13.048 14.6498 12.8897 14.6496C12.0486 14.6654 11.2086 14.5816 10.3873 14.4C9.52947 14.2145 8.69615 13.9299 7.90406 13.552C6.30587 12.7892 4.8995 11.677 3.78886 10.2976C3.22955 9.60092 2.75478 8.84042 2.37446 8.032C1.98693 7.20648 1.70421 6.33572 1.53286 5.44C1.44374 4.98036 1.38495 4.51536 1.35686 4.048C1.35686 3.8144 1.33446 3.5744 1.33446 3.3344V3.2C1.33446 3.1232 1.33446 3.0432 1.33446 2.9632C1.33554 2.91013 1.34752 2.85785 1.36966 2.8096C1.42904 2.71239 1.49648 2.62033 1.57126 2.5344C1.76835 2.29847 1.98224 2.07709 2.21126 1.872L2.35526 1.7344C2.46536 1.60793 2.595 1.4999 2.73926 1.4144C2.9186 1.36454 3.10355 1.33766 3.28966 1.3344C3.45785 1.33255 3.62493 1.36185 3.78246 1.4208C4.01171 1.51483 4.21245 1.66704 4.36486 1.8624C4.44947 1.96266 4.51264 2.07919 4.55046 2.2048C4.61446 2.416 4.67526 2.6272 4.73606 2.8448C4.79686 3.0624 4.86406 3.2864 4.92486 3.5072L5.12006 4.1408L5.14566 4.2112C5.52966 5.0272 4.28166 5.9648 4.26886 5.9712L3.99686 6.1696L4.08646 6.4896C4.41701 7.80089 5.09116 9.00035 6.03948 9.96442C6.9878 10.9285 8.17599 11.6223 9.48166 11.9744L9.73126 12.0288L10.6209 11.1584L10.6593 11.1168C10.8108 10.9778 10.9948 10.8792 11.1945 10.8299C11.3941 10.7807 11.6029 10.7825 11.8017 10.8352L12.3969 11.0208C12.8449 11.1616 13.2929 11.2992 13.7441 11.4304C13.9326 11.4904 14.1059 11.5908 14.2518 11.7245C14.3977 11.8582 14.5127 12.0221 14.5889 12.2048C14.6736 12.4264 14.6892 12.6685 14.6337 12.8992V12.9024Z" fill="black" fill-opacity="0.5"/>
</svg>
