<svg width="64" height="64" viewBox="0 0 64 64" fill="none" xmlns="http://www.w3.org/2000/svg">
<path d="M34 60H30C28.9395 59.9989 27.9227 59.5772 27.1727 58.8273C26.4228 58.0773 26.0011 57.0605 26 56V28H16C14.9395 27.9989 13.9227 27.5772 13.1727 26.8273C12.4228 26.0773 12.0011 25.0605 12 24V20C12.0011 18.9395 12.4228 17.9227 13.1727 17.1727C13.9227 16.4228 14.9395 16.0011 16 16H26V8C26.0011 6.93946 26.4228 5.92266 27.1727 5.17274C27.9227 4.42283 28.9395 4.00106 30 4H34C35.0605 4.00106 36.0773 4.42283 36.8273 5.17274C37.5772 5.92266 37.9989 6.93946 38 8V16H48C49.0605 16.0011 50.0773 16.4228 50.8273 17.1727C51.5772 17.9227 51.9989 18.9395 52 20V24C51.9989 25.0605 51.5772 26.0773 50.8273 26.8273C50.0773 27.5772 49.0605 27.9989 48 28H38V56C37.9989 57.0605 37.5772 58.0773 36.8273 58.8273C36.0773 59.5772 35.0605 59.9989 34 60ZM16 20V24H30V56H34V24H48V20H34V8H30V20H16Z" fill="#3148A3"/>
</svg>
