<svg width="56" height="56" viewBox="0 0 56 56" fill="none" xmlns="http://www.w3.org/2000/svg">
<path d="M51.1466 15.4467C50.9098 14.8765 50.4568 14.4234 49.8866 14.1867C49.6061 14.0671 49.3049 14.0037 48.9999 14H37.3333C36.7144 14 36.1209 14.2458 35.6834 14.6834C35.2458 15.121 34.9999 15.7145 34.9999 16.3333C34.9999 16.9522 35.2458 17.5457 35.6834 17.9832C36.1209 18.4208 36.7144 18.6667 37.3333 18.6667H43.3766L30.3333 31.71L22.6566 24.01C22.4397 23.7913 22.1816 23.6177 21.8973 23.4993C21.6129 23.3808 21.308 23.3198 20.9999 23.3198C20.6919 23.3198 20.3869 23.3808 20.1026 23.4993C19.8183 23.6177 19.5602 23.7913 19.3433 24.01L5.34327 38.01C5.12457 38.2269 4.95099 38.485 4.83253 38.7693C4.71407 39.0537 4.65308 39.3586 4.65308 39.6667C4.65308 39.9747 4.71407 40.2797 4.83253 40.564C4.95099 40.8484 5.12457 41.1064 5.34327 41.3233C5.56019 41.542 5.81826 41.7156 6.10259 41.8341C6.38693 41.9525 6.69191 42.0135 6.99994 42.0135C7.30797 42.0135 7.61295 41.9525 7.89728 41.8341C8.18162 41.7156 8.43969 41.542 8.65661 41.3233L20.9999 28.9567L28.6766 36.6567C28.8935 36.8754 29.1516 37.049 29.4359 37.1674C29.7203 37.2859 30.0252 37.3469 30.3333 37.3469C30.6413 37.3469 30.9463 37.2859 31.2306 37.1674C31.515 37.049 31.773 36.8754 31.9899 36.6567L46.6666 21.9567V28C46.6666 28.6188 46.9124 29.2123 47.35 29.6499C47.7876 30.0875 48.3811 30.3333 48.9999 30.3333C49.6188 30.3333 50.2123 30.0875 50.6499 29.6499C51.0874 29.2123 51.3333 28.6188 51.3333 28V16.3333C51.3296 16.0284 51.2662 15.7272 51.1466 15.4467Z" fill="#3148A3"/>
</svg>
