<svg width="64" height="64" viewBox="0 0 64 64" fill="none" xmlns="http://www.w3.org/2000/svg">
<path fill-rule="evenodd" clip-rule="evenodd" d="M33.3334 13.56C33.9894 13.7933 34.5667 14.1907 35.016 14.7053L45.6694 12.0413C45.8579 11.9935 46.0545 11.9874 46.2456 12.0233C46.4368 12.0592 46.6178 12.1364 46.776 12.2493C46.9254 12.356 47.052 12.492 47.1467 12.652L53.4054 22.6667H56V22.6707C56 23.5907 55.8907 24.4827 55.6854 25.3333C54.5747 29.9333 50.6587 33.3333 46 33.3333C41.34 33.3333 37.4254 29.9333 36.3147 25.3333C36.1048 24.46 35.9992 23.5649 36 22.6667H37.9654L42.9054 15.4813L35.9987 17.208L36 17.3333C36.0003 18.1608 35.744 18.968 35.2664 19.6438C34.7888 20.3196 34.1135 20.8307 33.3334 21.1067V50.6667H37.3334V53.3333H45.3334V56H18.6667V53.3333H26.6667V50.6667H30.6667V21.1067C29.7948 20.7969 29.0567 20.1954 28.5774 19.404L20.7827 21.4827L26.9134 30.9573H28.16V30.9613C28.1608 31.8582 28.0551 32.752 27.8454 33.624C26.7347 38.224 22.8187 41.624 18.16 41.624C13.5 41.624 9.58537 38.224 8.47471 33.624C8.26476 32.7507 8.15914 31.8555 8.16004 30.9573H9.77071L17.5774 19.8973C17.7576 19.6418 18.0219 19.4578 18.324 19.3773L28.0374 16.788C28.1379 16.0609 28.4363 15.3753 28.9 14.8063C29.3637 14.2373 29.9748 13.8066 30.6667 13.5613V8H33.3334V13.56ZM50.2614 22.6667L45.9467 15.764L41.2014 22.6667H50.2614ZM23.7374 30.9573L18.6187 23.0467L13.0347 30.9573H23.7374ZM52.92 25.3333C51.8934 28.5133 49.088 30.6667 46 30.6667C42.912 30.6667 40.1067 28.5133 39.08 25.3333H52.92ZM25.08 33.624C24.0534 36.804 21.248 38.9573 18.16 38.9573C15.072 38.9573 12.2667 36.804 11.24 33.624H25.08ZM32 18.6667C32.3537 18.6667 32.6928 18.5262 32.9429 18.2761C33.1929 18.0261 33.3334 17.687 33.3334 17.3333C33.3334 16.9797 33.1929 16.6406 32.9429 16.3905C32.6928 16.1405 32.3537 16 32 16C31.6464 16 31.3073 16.1405 31.0572 16.3905C30.8072 16.6406 30.6667 16.9797 30.6667 17.3333C30.6667 17.687 30.8072 18.0261 31.0572 18.2761C31.3073 18.5262 31.6464 18.6667 32 18.6667Z" fill="#3148A3"/>
</svg>
