<svg width="64" height="64" viewBox="0 0 64 64" fill="none" xmlns="http://www.w3.org/2000/svg">
<path d="M57.45 49.15L55.375 41.425L49.15 18.25L47.075 10.525C46.9734 10.1441 46.7978 9.78686 46.5581 9.47384C46.3183 9.16082 46.0193 8.89812 45.678 8.70077C45.3367 8.50341 44.9598 8.37527 44.5689 8.32366C44.178 8.27206 43.7808 8.298 43.4 8.40002L35.675 10.475C35.3545 10.5565 35.0502 10.6918 34.775 10.875C34.5513 10.322 34.1678 9.84823 33.6735 9.51425C33.1792 9.18026 32.5966 9.00123 32 9.00002H24C23.2602 9.00068 22.5471 9.27699 22 9.77502C21.4529 9.27699 20.7398 9.00068 20 9.00002H12C11.2044 9.00002 10.4413 9.31609 9.87868 9.8787C9.31607 10.4413 9 11.2044 9 12V52C9 52.7957 9.31607 53.5587 9.87868 54.1213C10.4413 54.6839 11.2044 55 12 55H20C20.7398 54.9994 21.4529 54.723 22 54.225C22.5471 54.723 23.2602 54.9994 24 55H32C32.7956 55 33.5587 54.6839 34.1213 54.1213C34.6839 53.5587 35 52.7957 35 52V19.5L35.625 21.875L41.85 45.05L43.925 52.775C44.0919 53.4157 44.4677 53.9824 44.993 54.3854C45.5183 54.7884 46.163 55.0047 46.825 55C47.0867 55.0021 47.3474 54.9685 47.6 54.9L55.325 52.825C55.7075 52.7258 56.0661 52.5507 56.3796 52.3102C56.6931 52.0697 56.9551 51.7687 57.15 51.425C57.5449 50.7355 57.6527 49.9183 57.45 49.15ZM37.825 22.325L47.475 19.725L53.175 40.975L43.525 43.575L37.825 22.325ZM24 11H32C32.2652 11 32.5196 11.1054 32.7071 11.2929C32.8946 11.4804 33 11.7348 33 12V43H23V12C23 11.7348 23.1054 11.4804 23.2929 11.2929C23.4804 11.1054 23.7348 11 24 11ZM12 11H20C20.2652 11 20.5196 11.1054 20.7071 11.2929C20.8946 11.4804 21 11.7348 21 12V19H11V12C11 11.7348 11.1054 11.4804 11.2929 11.2929C11.4804 11.1054 11.7348 11 12 11ZM20 53H12C11.7348 53 11.4804 52.8947 11.2929 52.7071C11.1054 52.5196 11 52.2652 11 52V21H21V52C21 52.2652 20.8946 52.5196 20.7071 52.7071C20.5196 52.8947 20.2652 53 20 53ZM32 53H24C23.7348 53 23.4804 52.8947 23.2929 52.7071C23.1054 52.5196 23 52.2652 23 52V45H33V52C33 52.2652 32.8946 52.5196 32.7071 52.7071C32.5196 52.8947 32.2652 53 32 53ZM35.6 12.875C35.6616 12.7586 35.7468 12.6562 35.8501 12.5744C35.9533 12.4927 36.0725 12.4333 36.2 12.4L43.925 10.325H44.175C44.3946 10.322 44.609 10.3914 44.7852 10.5225C44.9614 10.6535 45.0896 10.8389 45.15 11.05L46.975 17.825L37.3 20.375L35.5 13.625C35.4595 13.5005 35.4474 13.3685 35.4647 13.2387C35.482 13.1088 35.5283 12.9846 35.6 12.875ZM55.4 50.425C55.2688 50.6549 55.0538 50.8251 54.8 50.9L47.075 52.975C46.8167 53.0364 46.5446 52.9951 46.3161 52.8598C46.0876 52.7246 45.9205 52.506 45.85 52.25L44.025 45.5L53.7 42.9L55.5 49.675C55.5405 49.7995 55.5526 49.9316 55.5353 50.0614C55.518 50.1912 55.4717 50.3155 55.4 50.425Z" fill="#3148A3"/>
</svg>
